<?xml version="1.0" encoding="utf-8"?>
<!-- Generator: Adobe Illustrator 25.4.1, SVG Export Plug-In . SVG Version: 6.00 Build 0)  -->
<svg version="1.1" id="Layer_1" xmlns="http://www.w3.org/2000/svg" xmlns:xlink="http://www.w3.org/1999/xlink" x="0px" y="0px"
	 viewBox="0 0 35 35" style="enable-background:new 0 0 35 35;" xml:space="preserve">
<style type="text/css">
	.st0{fill:none;stroke:#D4B93B;stroke-width:2;stroke-linecap:round;stroke-linejoin:round;}
</style>
<path class="st0" d="M29.2,10.2H5.8c-1.6,0-2.9,1.3-2.9,2.9v14.6c0,1.6,1.3,2.9,2.9,2.9h23.3c1.6,0,2.9-1.3,2.9-2.9V13.1
	C32.1,11.5,30.8,10.2,29.2,10.2z"/>
<path class="st0" d="M23.3,30.6V7.3c0-0.8-0.3-1.5-0.9-2.1c-0.5-0.5-1.3-0.9-2.1-0.9h-5.8c-0.8,0-1.5,0.3-2.1,0.9
	c-0.5,0.5-0.9,1.3-0.9,2.1v23.3"/>
</svg>
