<?xml version="1.0" encoding="utf-8"?>
<!-- Generator: Adobe Illustrator 25.4.1, SVG Export Plug-In . SVG Version: 6.00 Build 0)  -->
<svg version="1.1" id="Layer_1" xmlns="http://www.w3.org/2000/svg" xmlns:xlink="http://www.w3.org/1999/xlink" x="0px" y="0px"
	 viewBox="0 0 24 24" style="enable-background:new 0 0 24 24;" xml:space="preserve">
<style type="text/css">
	.st0{fill:none;stroke:#D4B93B;stroke-linecap:round;stroke-linejoin:round;}
</style>
<path class="st0" d="M21,10c0,7-9,13-9,13s-9-6-9-13c0-2.4,0.9-4.7,2.6-6.4S9.6,1,12,1c2.4,0,4.7,0.9,6.4,2.6C20.1,5.3,21,7.6,21,10
	z"/>
<path class="st0" d="M12,13c1.7,0,3-1.3,3-3c0-1.7-1.3-3-3-3s-3,1.3-3,3C9,11.7,10.3,13,12,13z"/>
</svg>
