<?xml version="1.0" encoding="utf-8"?>
<!-- Generator: Adobe Illustrator 25.4.1, SVG Export Plug-In . SVG Version: 6.00 Build 0)  -->
<svg version="1.1" id="Layer_1" xmlns="http://www.w3.org/2000/svg" xmlns:xlink="http://www.w3.org/1999/xlink" x="0px" y="0px"
	 viewBox="0 0 38 38" style="enable-background:new 0 0 38 38;" xml:space="preserve">
<style type="text/css">
	.st0{fill:#D4B93B;}
</style>
<path class="st0" d="M34.1,37.9H3.9c-1,0-2-0.4-2.7-1.1c-0.7-0.7-1.1-1.7-1.1-2.7V3.9c0-1,0.4-2,1.1-2.7c0.7-0.7,1.7-1.1,2.7-1.1
	h30.3c1,0,2,0.4,2.7,1.1c0.7,0.7,1.1,1.7,1.1,2.7v30.3c0,1-0.4,2-1.1,2.7C36.1,37.5,35.1,37.9,34.1,37.9z M3.9,1.2
	C3.1,1.2,2.5,1.4,2,2S1.2,3.1,1.2,3.9v30.3c0,0.7,0.3,1.4,0.8,1.9c0.5,0.5,1.2,0.8,1.9,0.8h30.3c0.7,0,1.4-0.3,1.9-0.8
	c0.5-0.5,0.8-1.2,0.8-1.9V3.9c0-0.7-0.3-1.4-0.8-1.9c-0.5-0.5-1.2-0.8-1.9-0.8H3.9z"/>
<path class="st0" d="M32.5,12.8h-1.1V6.6h-6.3V5.5H32c0.1,0,0.3,0.1,0.4,0.2c0.1,0.1,0.2,0.2,0.2,0.4V12.8z"/>
<path class="st0" d="M21.9,15.4l9.7-9.7l0.8,0.8l-9.7,9.7L21.9,15.4z"/>
<path class="st0" d="M6.6,12.8H5.5V6c0-0.1,0.1-0.3,0.2-0.4C5.7,5.5,5.9,5.5,6,5.5h6.8v1.1H6.6V12.8z"/>
<path class="st0" d="M5.6,6.4l0.8-0.8l9.7,9.7l-0.8,0.8L5.6,6.4z"/>
<path class="st0" d="M32,32.5h-6.8v-1.1h6.3v-6.3h1.1V32c0,0.1-0.1,0.3-0.2,0.4C32.3,32.5,32.1,32.5,32,32.5z"/>
<path class="st0" d="M21.9,22.6l0.8-0.8l9.7,9.7l-0.8,0.8L21.9,22.6z"/>
<path class="st0" d="M12.8,32.5H6c-0.1,0-0.3-0.1-0.4-0.2c-0.1-0.1-0.2-0.2-0.2-0.4v-6.8h1.1v6.3h6.3V32.5z"/>
<path class="st0" d="M5.6,31.6l9.7-9.7l0.8,0.8l-9.7,9.7L5.6,31.6z"/>
</svg>
