<?xml version="1.0" encoding="utf-8"?>
<!-- Generator: Adobe Illustrator 25.4.1, SVG Export Plug-In . SVG Version: 6.00 Build 0)  -->
<svg version="1.1" id="Layer_1" xmlns="http://www.w3.org/2000/svg" xmlns:xlink="http://www.w3.org/1999/xlink" x="0px" y="0px"
	 viewBox="0 0 40 40" style="enable-background:new 0 0 40 40;" xml:space="preserve">
<style type="text/css">
	.st0{fill:#D4B93B;}
</style>
<path class="st0" d="M34,17.9c-0.4,0-0.8,0-1.2,0.1c-0.4-2-1.4-3.8-3-5.2c-1.8-1.7-4.2-2.6-6.6-2.6c-1.2,0-2.4,0.2-3.5,0.7
	c-0.5,0.2-0.7,0.7-0.5,1.2c0.2,0.5,0.7,0.7,1.2,0.5c0.9-0.3,1.9-0.5,2.9-0.5c4.1,0,7.5,3.1,7.9,7.2c0,0.3,0.2,0.6,0.5,0.7
	c0.3,0.2,0.6,0.2,0.9,0.1c0.5-0.2,1-0.3,1.6-0.3c2.2,0,4.1,1.8,4.1,4.1s-1.8,4.1-4.1,4.1c-0.1,0-13.4,0-13.9,0c-0.5,0-0.9,0.3-1,0.8
	c-0.1,0.5,0.3,1,0.8,1c0.1,0,13.9,0,14,0c3.3,0,6-2.7,6-6C40,20.6,37.3,17.9,34,17.9z"/>
<path class="st0" d="M0.9,19.4c-0.5,0-0.9,0.4-0.9,0.9v7.6c0,0.5,0.4,0.9,0.9,0.9c0.5,0,0.9-0.4,0.9-0.9v-7.6
	C1.9,19.8,1.5,19.4,0.9,19.4z"/>
<path class="st0" d="M5.8,17.9c-0.5,0-0.9,0.4-0.9,0.9v9c0,0.5,0.4,0.9,0.9,0.9c0.5,0,0.9-0.4,0.9-0.9v-9
	C6.7,18.3,6.3,17.9,5.8,17.9z"/>
<path class="st0" d="M10.7,13.9c-0.5,0-0.9,0.4-0.9,0.9v14c0,0.5,0.4,0.9,0.9,0.9c0.5,0,0.9-0.4,0.9-0.9v-14
	C11.7,14.3,11.3,13.9,10.7,13.9z"/>
<path class="st0" d="M15.8,14c-0.5,0-0.9,0.4-0.9,0.9v13.8c0,0.5,0.4,0.9,0.9,0.9s0.9-0.4,0.9-0.9V15C16.8,14.5,16.3,14,15.8,14z"/>
</svg>
