<?xml version="1.0" encoding="utf-8"?>
<!-- Generator: Adobe Illustrator 25.4.1, SVG Export Plug-In . SVG Version: 6.00 Build 0)  -->
<svg version="1.1" id="Layer_1" xmlns="http://www.w3.org/2000/svg" xmlns:xlink="http://www.w3.org/1999/xlink" x="0px" y="0px"
	 viewBox="0 0 40 40" style="enable-background:new 0 0 40 40;" xml:space="preserve">
<style type="text/css">
	.st0{fill:#D4B93B;}
</style>
<path class="st0" d="M39,4.3c-1.9-2.4-5.9-2-7.1-1.8c-1.9,0.3-7.8,3.1-9.8,9.3l-0.3,0.9h1.1c2-0.2,3.1,0,3.6,0.5
	c0.5,0.5,0.7,1.3,0.5,2.7c-0.1,1.5-0.9,3.3-1.7,4.7l-0.1,0.1c-0.6,1.1-1.7,3.3-2.9,3.4c-0.5,0.1-0.9-0.2-1.4-0.7
	c-1.5-1.7-1.9-4.7-2.1-7.4c-0.1-0.9-0.2-1.7-0.3-2.5l-0.1-0.7c-0.3-1.7-0.6-3.5-1.1-5.1c-0.5-1.7-1.7-3.8-3.4-4.3
	C12.2,3.1,10.2,3.7,9,4.5C6.7,5.9,4.7,7.6,2.9,9.3c-0.7,0.7-1.5,1.5-2.3,2.1C0.2,11.7,0,12.1,0,12.5c0,0.3,0.1,0.5,0.3,0.8
	c0.1,0.1,0.1,0.1,0.1,0.2c0.3,0.5,0.7,1.1,1.5,1.3c0.9,0.1,1.7-0.1,2.5-0.3c1.3-0.4,1.8-0.5,2.3,0.4c0.5,0.9,0.8,1.9,1.1,2.9
	c0.1,0.5,0.3,1,0.5,1.5c0.7,2,1.2,4.1,1.8,6.5l0.2,0.9c0.9,3.9,2.3,9.4,5.7,10.8c0.5,0.3,1.1,0.3,1.7,0.3c1.7,0,3.5-0.8,4.5-1.4
	c3.9-2.4,6.8-5.7,8.8-8.5c5.6-7.7,8.5-16.2,8.9-18.4C40.2,7.2,39.9,5.5,39,4.3z M38.5,9.2c-0.4,2.1-3.3,10.4-8.6,17.8
	c-2,2.6-4.7,5.9-8.5,8.1c-1.2,0.7-3.5,1.6-4.9,1c-2.8-1.2-4-6.2-4.9-9.9l-0.2-0.9c-0.5-2.3-1.1-4.5-1.8-6.5
	c-0.1-0.5-0.3-0.9-0.4-1.4c-0.3-1-0.6-2.1-1.2-3.1c-0.7-1.1-1.4-1.4-2.2-1.4c-0.6,0-1.2,0.2-1.7,0.3c-0.7,0.2-1.3,0.4-1.9,0.3
	c-0.2,0-0.8-0.8-0.9-0.9C2.1,11.8,3,11,3.8,10.3c1.9-1.7,3.7-3.3,5.9-4.5c1-0.6,2.6-1.1,3.8-0.8c1.1,0.3,2.1,1.9,2.5,3.3
	c0.5,1.5,0.7,3.3,1,4.9l0.1,0.7c0.1,0.7,0.2,1.5,0.3,2.4c0.3,2.9,0.6,6.1,2.5,8.2c0.8,0.9,1.7,1.3,2.5,1.1c1.8-0.3,3.1-2.6,3.9-4.1
	l0.1-0.1c0.8-1.5,1.7-3.4,1.9-5.2c0.1-1.8-0.1-3-0.9-3.8c-0.9-0.9-2.2-1.1-3.6-1c2.2-5.3,7.4-7.3,8.4-7.4c1-0.2,4.4-0.5,5.8,1.3
	C38.6,6.1,38.8,7.3,38.5,9.2z"/>
</svg>
