<?xml version="1.0" encoding="utf-8"?>
<!-- Generator: Adobe Illustrator 25.4.1, SVG Export Plug-In . SVG Version: 6.00 Build 0)  -->
<svg version="1.1" id="Layer_1" xmlns="http://www.w3.org/2000/svg" xmlns:xlink="http://www.w3.org/1999/xlink" x="0px" y="0px"
	 viewBox="0 0 40 40" style="enable-background:new 0 0 40 40;" xml:space="preserve">
<style type="text/css">
	.st0{fill:#D4B93B;}
</style>
<path class="st0" d="M26.2,18.2l-8.8-4.8c-0.5-0.3-1.1-0.3-1.6,0c-0.5,0.3-0.8,0.8-0.8,1.4v9.6c0,0.6,0.3,1.1,0.8,1.4
	c0.3,0.2,0.5,0.2,0.8,0.2c0.3,0,0.5-0.1,0.8-0.2l8.8-4.8c0.5-0.3,0.9-0.8,0.9-1.4C27,19,26.7,18.5,26.2,18.2z M17.3,23.2V16l6.6,3.6
	L17.3,23.2z"/>
<path class="st0" d="M39.7,12L39.7,12c0-0.3-0.4-3.2-1.8-4.7c-1.6-1.7-3.4-1.9-4.3-2c-0.1,0-0.1,0-0.2,0l-0.1,0
	C28.1,4.9,20.1,4.8,20,4.8l0,0l0,0c-0.1,0-8.1,0.1-13.4,0.4l-0.1,0c-0.1,0-0.1,0-0.2,0C5.5,5.4,3.7,5.6,2,7.4
	C0.7,8.8,0.3,11.6,0.3,12l0,0c0,0.1-0.3,3.3-0.3,6.5v3c0,3.2,0.3,6.4,0.3,6.5l0,0c0,0.3,0.4,3.1,1.8,4.6c1.5,1.7,3.4,1.9,4.5,2
	c0.2,0,0.3,0,0.4,0.1l0.1,0c3.1,0.3,12.6,0.4,13,0.4l0,0l0,0c0.1,0,8.1-0.1,13.4-0.4l0.1,0c0.1,0,0.1,0,0.2,0c0.9-0.1,2.7-0.3,4.2-2
	c1.3-1.4,1.7-4.2,1.7-4.6l0,0c0-0.1,0.3-3.3,0.3-6.5v-3C40,15.3,39.7,12.1,39.7,12z M37.7,21.5c0,3-0.3,6-0.3,6.3
	c-0.1,0.8-0.5,2.5-1.1,3.2c-1,1.1-2,1.2-2.8,1.3c-0.1,0-0.2,0-0.2,0c-5.1,0.4-12.8,0.4-13.2,0.4c-0.4,0-9.8-0.2-12.8-0.4
	c-0.2,0-0.3,0-0.5-0.1c-0.9-0.1-2.1-0.2-3-1.3l0,0c-0.6-0.7-1-2.3-1.1-3.2c0-0.2-0.3-3.3-0.3-6.3v-3c0-3,0.3-6,0.3-6.3
	C2.7,11.3,3.2,9.6,3.8,9c1-1.1,2.1-1.3,2.8-1.3c0.1,0,0.1,0,0.2,0C12,7.2,19.7,7.2,20,7.2c0.3,0,8,0.1,13.2,0.4c0.1,0,0.1,0,0.2,0
	c0.7,0.1,1.8,0.2,2.9,1.3l0,0c0.6,0.7,1,2.3,1.1,3.3c0,0.2,0.3,3.3,0.3,6.3V21.5z"/>
</svg>
